<mxfile host="app.diagrams.net" agent="Mozilla/5.0 (Windows NT 10.0; Win64; x64) AppleWebKit/537.36 (KHTML, like Gecko) Chrome/138.0.0.0 Safari/537.36" version="28.0.4">
  <diagram name="페이지-1" id="Q9QDK64VjzSi-fKA50Oo">
    <mxGraphModel dx="1358" dy="708" grid="1" gridSize="10" guides="1" tooltips="1" connect="1" arrows="1" fold="1" page="1" pageScale="1" pageWidth="827" pageHeight="1169" math="0" shadow="0">
      <root>
        <mxCell id="0" />
        <mxCell id="1" parent="0" />
        <mxCell id="5rwa--ozfvzuTR5L9hNA-24" value="" style="group" vertex="1" connectable="0" parent="1">
          <mxGeometry x="37" y="20" width="790" height="515.4224615384614" as="geometry" />
        </mxCell>
        <mxCell id="5rwa--ozfvzuTR5L9hNA-8" value="" style="rounded=0;whiteSpace=wrap;html=1;align=left;container=0;" vertex="1" parent="5rwa--ozfvzuTR5L9hNA-24">
          <mxGeometry x="33" y="494.57630769230764" width="195.31" height="20.846153846153847" as="geometry" />
        </mxCell>
        <mxCell id="5rwa--ozfvzuTR5L9hNA-13" style="rounded=0;orthogonalLoop=1;jettySize=auto;html=1;edgeStyle=orthogonalEdgeStyle;dashed=1;" edge="1" parent="5rwa--ozfvzuTR5L9hNA-24" source="5rwa--ozfvzuTR5L9hNA-10" target="5rwa--ozfvzuTR5L9hNA-6">
          <mxGeometry relative="1" as="geometry" />
        </mxCell>
        <mxCell id="5rwa--ozfvzuTR5L9hNA-3" value="" style="endArrow=classic;html=1;rounded=0;exitX=1;exitY=0.5;exitDx=0;exitDy=0;entryX=0;entryY=0.25;entryDx=0;entryDy=0;edgeStyle=orthogonalEdgeStyle;" edge="1" parent="5rwa--ozfvzuTR5L9hNA-24" source="5rwa--ozfvzuTR5L9hNA-7" target="5rwa--ozfvzuTR5L9hNA-19">
          <mxGeometry width="50" height="50" relative="1" as="geometry">
            <mxPoint x="-201" y="809" as="sourcePoint" />
            <mxPoint x="360" y="557.6800000000001" as="targetPoint" />
          </mxGeometry>
        </mxCell>
        <mxCell id="5rwa--ozfvzuTR5L9hNA-1" value="" style="endArrow=classic;html=1;rounded=0;exitX=1;exitY=0;exitDx=0;exitDy=0;entryX=0;entryY=0.25;entryDx=0;entryDy=0;" edge="1" parent="5rwa--ozfvzuTR5L9hNA-24" source="5rwa--ozfvzuTR5L9hNA-10">
          <mxGeometry width="50" height="50" relative="1" as="geometry">
            <mxPoint x="159" y="243" as="sourcePoint" />
            <mxPoint x="499.0000000000002" y="88.37" as="targetPoint" />
          </mxGeometry>
        </mxCell>
        <mxCell id="5rwa--ozfvzuTR5L9hNA-2" style="edgeStyle=orthogonalEdgeStyle;rounded=0;orthogonalLoop=1;jettySize=auto;html=1;entryX=0.5;entryY=0;entryDx=0;entryDy=0;" edge="1" parent="5rwa--ozfvzuTR5L9hNA-24" source="5rwa--ozfvzuTR5L9hNA-17" target="5rwa--ozfvzuTR5L9hNA-20">
          <mxGeometry relative="1" as="geometry" />
        </mxCell>
        <mxCell id="5rwa--ozfvzuTR5L9hNA-9" value="" style="group" vertex="1" connectable="0" parent="5rwa--ozfvzuTR5L9hNA-24">
          <mxGeometry width="310" height="170" as="geometry" />
        </mxCell>
        <mxCell id="5rwa--ozfvzuTR5L9hNA-10" value="&lt;div&gt;&amp;nbsp; + ResponseEntity&amp;lt;List&amp;lt;ReviewVO&amp;gt;&amp;gt; getAllReviews()&lt;/div&gt;&lt;div&gt;&amp;nbsp; + ResponseEntity&amp;lt;Void&amp;gt; deleteReview(Long reviewId)&lt;/div&gt;" style="rounded=0;whiteSpace=wrap;html=1;align=left;container=0;" vertex="1" parent="5rwa--ozfvzuTR5L9hNA-9">
          <mxGeometry y="88.06" width="310.00000000000006" height="81.94" as="geometry" />
        </mxCell>
        <mxCell id="5rwa--ozfvzuTR5L9hNA-11" value="ReviewController" style="swimlane;fontStyle=0;childLayout=stackLayout;horizontal=1;startSize=30;horizontalStack=0;resizeParent=1;resizeParentMax=0;resizeLast=0;collapsible=1;marginBottom=0;whiteSpace=wrap;html=1;container=0;" vertex="1" parent="5rwa--ozfvzuTR5L9hNA-9">
          <mxGeometry width="310.00000000000006" height="88.06" as="geometry">
            <mxRectangle x="100" y="80" width="140" height="30" as="alternateBounds" />
          </mxGeometry>
        </mxCell>
        <mxCell id="5rwa--ozfvzuTR5L9hNA-12" value="&lt;div&gt;&amp;nbsp; - reviewService: ReviewService&lt;/div&gt;" style="text;strokeColor=none;fillColor=none;align=left;verticalAlign=middle;spacingLeft=4;spacingRight=4;overflow=hidden;points=[[0,0.5],[1,0.5]];portConstraint=eastwest;rotatable=0;whiteSpace=wrap;html=1;container=0;" vertex="1" parent="5rwa--ozfvzuTR5L9hNA-9">
          <mxGeometry y="30" width="310.00000000000006" height="58.06" as="geometry" />
        </mxCell>
        <mxCell id="5rwa--ozfvzuTR5L9hNA-15" value="ReviewService" style="swimlane;fontStyle=0;childLayout=stackLayout;horizontal=1;startSize=30;horizontalStack=0;resizeParent=1;resizeParentMax=0;resizeLast=0;collapsible=1;marginBottom=0;whiteSpace=wrap;html=1;container=0;" vertex="1" parent="5rwa--ozfvzuTR5L9hNA-24">
          <mxGeometry x="500" width="290" height="70" as="geometry">
            <mxRectangle x="100" y="80" width="140" height="30" as="alternateBounds" />
          </mxGeometry>
        </mxCell>
        <mxCell id="5rwa--ozfvzuTR5L9hNA-16" value="&amp;nbsp; - reviewMapper: ReviewMapper" style="text;strokeColor=none;fillColor=none;align=left;verticalAlign=middle;spacingLeft=4;spacingRight=4;overflow=hidden;points=[[0,0.5],[1,0.5]];portConstraint=eastwest;rotatable=0;whiteSpace=wrap;html=1;container=0;" vertex="1" parent="5rwa--ozfvzuTR5L9hNA-15">
          <mxGeometry y="30" width="290" height="40" as="geometry" />
        </mxCell>
        <mxCell id="5rwa--ozfvzuTR5L9hNA-17" value="&lt;div&gt;&amp;nbsp; + List&amp;lt;ReviewVO&amp;gt; getAllReviews()&lt;/div&gt;&lt;div&gt;&amp;nbsp; + void deleteReviewById(Long reviewId)&lt;/div&gt;" style="rounded=0;whiteSpace=wrap;html=1;align=left;container=0;" vertex="1" parent="5rwa--ozfvzuTR5L9hNA-24">
          <mxGeometry x="500" y="70" width="290" height="50" as="geometry" />
        </mxCell>
        <mxCell id="5rwa--ozfvzuTR5L9hNA-19" value="&lt;div&gt;&amp;nbsp; + List&amp;lt;ReviewVO&amp;gt; findAllReviews()&lt;/div&gt;&lt;div&gt;&amp;nbsp; + void deleteReviewById(Long reviewId)&lt;/div&gt;" style="rounded=0;whiteSpace=wrap;html=1;align=left;container=0;" vertex="1" parent="5rwa--ozfvzuTR5L9hNA-24">
          <mxGeometry x="469.5" y="373" width="230.5" height="50" as="geometry" />
        </mxCell>
        <mxCell id="5rwa--ozfvzuTR5L9hNA-20" value="&lt;div&gt;&amp;lt;&amp;lt;interface&amp;gt;&amp;gt;&lt;/div&gt;ReviewMapper" style="swimlane;fontStyle=0;childLayout=stackLayout;horizontal=1;startSize=30;horizontalStack=0;resizeParent=1;resizeParentMax=0;resizeLast=0;collapsible=1;marginBottom=0;whiteSpace=wrap;html=1;container=0;" vertex="1" parent="5rwa--ozfvzuTR5L9hNA-24">
          <mxGeometry x="469.5" y="313" width="230.5" height="60" as="geometry">
            <mxRectangle x="100" y="80" width="140" height="30" as="alternateBounds" />
          </mxGeometry>
        </mxCell>
        <mxCell id="5rwa--ozfvzuTR5L9hNA-6" value="ReviewVO" style="swimlane;fontStyle=0;childLayout=stackLayout;horizontal=1;startSize=30;horizontalStack=0;resizeParent=1;resizeParentMax=0;resizeLast=0;collapsible=1;marginBottom=0;whiteSpace=wrap;html=1;container=0;" vertex="1" parent="5rwa--ozfvzuTR5L9hNA-24">
          <mxGeometry x="33" y="364.58" width="195.31" height="130" as="geometry">
            <mxRectangle x="100" y="80" width="140" height="30" as="alternateBounds" />
          </mxGeometry>
        </mxCell>
        <mxCell id="5rwa--ozfvzuTR5L9hNA-7" value="&lt;div&gt;&amp;nbsp; - Long reviewId&lt;/div&gt;&lt;div&gt;&amp;nbsp; - Long gameId&lt;/div&gt;&lt;div&gt;&amp;nbsp; - String userName&lt;/div&gt;&lt;div&gt;&amp;nbsp; - String content&lt;/div&gt;&lt;div&gt;&amp;nbsp; - int rating&lt;/div&gt;&lt;div&gt;&amp;nbsp; - Date createdAt&lt;/div&gt;" style="text;strokeColor=none;fillColor=none;align=left;verticalAlign=middle;spacingLeft=4;spacingRight=4;overflow=hidden;points=[[0,0.5],[1,0.5]];portConstraint=eastwest;rotatable=0;whiteSpace=wrap;html=1;container=0;" vertex="1" parent="5rwa--ozfvzuTR5L9hNA-24">
          <mxGeometry x="33" y="395.84999999999997" width="195.31" height="98.73" as="geometry" />
        </mxCell>
      </root>
    </mxGraphModel>
  </diagram>
</mxfile>
